<svg version="1.1" xmlns="http://www.w3.org/2000/svg" width="91" height="32" viewBox="0 0 91 32">
<title>logo</title>
<path fill="#319795" d="M29.994 32.169h-17.884c-1.237 0-2.25-1.012-2.25-2.25s1.012-2.25 2.25-2.25h15.635v-11.848c0-0.037-0.038-0.075-0.038-0.112l-11.585-10.461-11.585 10.461c-0.037 0.037-0.037 0.075-0.037 0.112v14.135c0 1.237-1.012 2.25-2.25 2.25s-2.25-1.012-2.25-2.25v-14.135c0-1.312 0.562-2.55 1.537-3.449l13.085-11.81c0.862-0.75 2.137-0.75 2.999 0l13.085 11.81c0.975 0.862 1.537 2.137 1.537 3.449v14.135c-0.038 1.237-1.012 2.212-2.25 2.212z"></path>
<path fill="#319795" d="M60.632 15.931q2.108 1.297 3.081 3.73 0.568 1.297 0.568 3.203 0 2.959-1.581 4.966t-4.622 2.98q-1.905 0.649-4.5 0.649h-12.933q-0.568 0-0.993-0.426t-0.426-0.993v-2.919q0-0.608 0.426-1.034t0.993-0.426h13.257q2.351 0 3.487-0.851 0.973-0.811 0.973-2.209t-1.014-2.291q-1.257-1.095-3.77-1.095h-12.933q-0.568 0-0.993-0.426t-0.426-1.034v-2.797q0-0.568 0.426-0.993t0.993-0.426h12.203q1.743 0 2.716-0.608 0.689-0.405 1.095-1.176 0.284-0.568 0.284-1.318t-0.203-1.358q-0.162-0.486-0.568-0.892-0.892-1.014-2.959-1.014h-12.568q-0.568 0-0.993-0.426t-0.426-1.034v-2.919q0-0.568 0.426-0.993t0.993-0.426h12.203q5.027 0 7.743 2.838 2.311 2.311 2.311 5.797 0 3.73-2.27 5.919zM74.622 1.376q0.568 0 0.993 0.426t0.426 0.993v27.163q0 0.568-0.426 0.993t-0.993 0.426h-3.081q-0.568 0-0.993-0.426t-0.426-0.993v-27.163q0-0.568 0.426-0.993t0.993-0.426h3.081zM89.42 25.579q0.608 0 1.014 0.426t0.405 0.993v2.959q0 0.568-0.405 0.993t-1.014 0.426h-9.446q-0.608 0-1.014-0.426t-0.405-0.993v-2.959q0-0.568 0.405-0.993t1.014-0.426h9.446z"></path>
</svg>
